<mxfile host="app.diagrams.net" agent="Mozilla/5.0 (Macintosh; Intel Mac OS X 10_15_7) AppleWebKit/537.36 (KHTML, like Gecko) Chrome/139.0.0.0 Safari/537.36" version="28.1.1">
  <diagram name="Page-1" id="0tki0pQY7JVeOgvnjVLD">
    <mxGraphModel dx="976" dy="752" grid="1" gridSize="10" guides="1" tooltips="1" connect="1" arrows="1" fold="1" page="1" pageScale="1" pageWidth="850" pageHeight="1100" math="0" shadow="0">
      <root>
        <mxCell id="0" />
        <mxCell id="1" parent="0" />
        <mxCell id="k_BbuLYQrY9MgL3rdKBu-2" value="Snake &amp;amp; Ladder" style="rounded=1;whiteSpace=wrap;html=1;" vertex="1" parent="1">
          <mxGeometry x="305" y="130" width="120" height="60" as="geometry" />
        </mxCell>
        <mxCell id="k_BbuLYQrY9MgL3rdKBu-3" value="Board&lt;div&gt;Grid [10][10]&lt;/div&gt;&lt;div&gt;NewBoard()&lt;br&gt;InitializeBoard()&lt;/div&gt;&lt;div&gt;MakeMove()&lt;/div&gt;&lt;div&gt;SwitchPlayers&lt;/div&gt;" style="rounded=1;whiteSpace=wrap;html=1;" vertex="1" parent="1">
          <mxGeometry x="90" y="250" width="120" height="170" as="geometry" />
        </mxCell>
        <mxCell id="k_BbuLYQrY9MgL3rdKBu-4" value="" style="rounded=1;whiteSpace=wrap;html=1;" vertex="1" parent="1">
          <mxGeometry x="270" y="250" width="120" height="170" as="geometry" />
        </mxCell>
      </root>
    </mxGraphModel>
  </diagram>
</mxfile>
